<svg id="visual" viewBox="0 0 540 960" width="540" height="960" xmlns="http://www.w3.org/2000/svg" xmlns:xlink="http://www.w3.org/1999/xlink" version="1.1"><path d="M458 960L465.2 945.5C472.3 931 486.7 902 489.3 872.8C492 843.7 483 814.3 473.2 785.2C463.3 756 452.7 727 448.2 698C443.7 669 445.3 640 444.3 611C443.3 582 439.7 553 447.8 523.8C456 494.7 476 465.3 485 436.2C494 407 492 378 482 349C472 320 454 291 449.5 262C445 233 454 204 455 174.8C456 145.7 449 116.3 443.7 87.2C438.3 58 434.7 29 432.8 14.5L431 0L540 0L540 14.5C540 29 540 58 540 87.2C540 116.3 540 145.7 540 174.8C540 204 540 233 540 262C540 291 540 320 540 349C540 378 540 407 540 436.2C540 465.3 540 494.7 540 523.8C540 553 540 582 540 611C540 640 540 669 540 698C540 727 540 756 540 785.2C540 814.3 540 843.7 540 872.8C540 902 540 931 540 945.5L540 960Z" fill="#52be74"></path><path d="M377 960L378.8 945.5C380.7 931 384.3 902 386.2 872.8C388 843.7 388 814.3 387 785.2C386 756 384 727 380.3 698C376.7 669 371.3 640 370.5 611C369.7 582 373.3 553 383.3 523.8C393.3 494.7 409.7 465.3 407.8 436.2C406 407 386 378 367 349C348 320 330 291 326.5 262C323 233 334 204 336.7 174.8C339.3 145.7 333.7 116.3 332.7 87.2C331.7 58 335.3 29 337.2 14.5L339 0L432 0L433.8 14.5C435.7 29 439.3 58 444.7 87.2C450 116.3 457 145.7 456 174.8C455 204 446 233 450.5 262C455 291 473 320 483 349C493 378 495 407 486 436.2C477 465.3 457 494.7 448.8 523.8C440.7 553 444.3 582 445.3 611C446.3 640 444.7 669 449.2 698C453.7 727 464.3 756 474.2 785.2C484 814.3 493 843.7 490.3 872.8C487.7 902 473.3 931 466.2 945.5L459 960Z" fill="#39b05f"></path><path d="M156 960L165 945.5C174 931 192 902 208.2 872.8C224.3 843.7 238.7 814.3 247.7 785.2C256.7 756 260.3 727 250.3 698C240.3 669 216.7 640 223.8 611C231 582 269 553 265.5 523.8C262 494.7 217 465.3 197.2 436.2C177.3 407 182.7 378 186.2 349C189.7 320 191.3 291 191.3 262C191.3 233 189.7 204 195.2 174.8C200.7 145.7 213.3 116.3 226 87.2C238.7 58 251.3 29 257.7 14.5L264 0L340 0L338.2 14.5C336.3 29 332.7 58 333.7 87.2C334.7 116.3 340.3 145.7 337.7 174.8C335 204 324 233 327.5 262C331 291 349 320 368 349C387 378 407 407 408.8 436.2C410.7 465.3 394.3 494.7 384.3 523.8C374.3 553 370.7 582 371.5 611C372.3 640 377.7 669 381.3 698C385 727 387 756 388 785.2C389 814.3 389 843.7 387.2 872.8C385.3 902 381.7 931 379.8 945.5L378 960Z" fill="#16a34a"></path><path d="M53 960L53.8 945.5C54.7 931 56.3 902 61.7 872.8C67 843.7 76 814.3 78.8 785.2C81.7 756 78.3 727 69.3 698C60.3 669 45.7 640 48.3 611C51 582 71 553 74.7 523.8C78.3 494.7 65.7 465.3 65.7 436.2C65.7 407 78.3 378 84.7 349C91 320 91 291 90 262C89 233 87 204 83.3 174.8C79.7 145.7 74.3 116.3 71.7 87.2C69 58 69 29 69 14.5L69 0L265 0L258.7 14.5C252.3 29 239.7 58 227 87.2C214.3 116.3 201.7 145.7 196.2 174.8C190.7 204 192.3 233 192.3 262C192.3 291 190.7 320 187.2 349C183.7 378 178.3 407 198.2 436.2C218 465.3 263 494.7 266.5 523.8C270 553 232 582 224.8 611C217.7 640 241.3 669 251.3 698C261.3 727 257.7 756 248.7 785.2C239.7 814.3 225.3 843.7 209.2 872.8C193 902 175 931 166 945.5L157 960Z" fill="#118d41"></path><path d="M0 960L0 945.5C0 931 0 902 0 872.8C0 843.7 0 814.3 0 785.2C0 756 0 727 0 698C0 669 0 640 0 611C0 582 0 553 0 523.8C0 494.7 0 465.3 0 436.2C0 407 0 378 0 349C0 320 0 291 0 262C0 233 0 204 0 174.8C0 145.7 0 116.3 0 87.2C0 58 0 29 0 14.5L0 0L70 0L70 14.5C70 29 70 58 72.7 87.2C75.3 116.3 80.7 145.7 84.3 174.8C88 204 90 233 91 262C92 291 92 320 85.7 349C79.3 378 66.7 407 66.7 436.2C66.7 465.3 79.3 494.7 75.7 523.8C72 553 52 582 49.3 611C46.7 640 61.3 669 70.3 698C79.3 727 82.7 756 79.8 785.2C77 814.3 68 843.7 62.7 872.8C57.3 902 55.7 931 54.8 945.5L54 960Z" fill="#0d7838"></path></svg>