<svg xmlns="http://www.w3.org/2000/svg" version="1.1" xmlns:xlink="http://www.w3.org/1999/xlink" xmlns:svgjs="http://svgjs.dev/svgjs" width="1500" height="1500" viewBox="0 0 1500 1500"><rect width="1500" height="1500" fill="#ffffff"></rect><g transform="matrix(0.6666666666666666,0,0,0.6666666666666666,249.39393939393932,622.686722944213)"><svg viewBox="0 0 396 101" data-background-color="#ffffff" preserveAspectRatio="xMidYMid meet" height="382" width="1500" xmlns="http://www.w3.org/2000/svg" xmlns:xlink="http://www.w3.org/1999/xlink"><g id="tight-bounds" transform="matrix(1,0,0,1,0.24000000000003752,-0.00795425667089944)"><svg viewBox="0 0 395.5199999999999 101.01590851334178" height="101.01590851334178" width="395.5199999999999"><g><svg viewBox="0 0 395.5199999999999 101.01590851334178" height="101.01590851334178" width="395.5199999999999"><g><svg viewBox="0 0 395.5199999999999 101.01590851334178" height="101.01590851334178" width="395.5199999999999"><g id="textblocktransform"><svg viewBox="0 0 395.5199999999999 101.01590851334178" height="101.01590851334178" width="395.5199999999999" id="textblock"><g><svg viewBox="0 0 395.5199999999999 101.01590851334178" height="101.01590851334178" width="395.5199999999999"><g transform="matrix(1,0,0,1,0,0)"><svg width="395.5199999999999" viewBox="1.9 -42.95 196.73 50.25" height="101.01590851334178" data-palette-color="#facc15"><path d="M9.65 0L1.9 0 1.9-42.95 15-42.95 18.6-16.75 22.2-42.95 35.4-42.95 35.4 0 27.55 0 27.55-30.95 22.6 0 14.9 0 9.65-30.95 9.65 0ZM45.7 0.4Q41.45 0.4 39.87-2.43 38.3-5.25 38.3-10.5L38.3-10.5Q38.3-14.8 39.42-17.1 40.55-19.4 42.55-20.48 44.55-21.55 48.65-22.85L48.65-22.85 51.05-23.65 51.05-23.75 51.05-27.4Q51.05-28.85 50.47-29.63 49.9-30.4 49.1-30.4L49.1-30.4Q48.4-30.4 47.87-29.75 47.35-29.1 47.35-28L47.35-28 47.35-25.8 38.85-25.8 38.85-27Q38.85-32.4 41.37-34.7 43.9-37 49.6-37L49.6-37Q54.15-37 57-34.63 59.85-32.25 59.85-27.9L59.85-27.9 59.85 0 51.15 0 51.15-4.35Q50.5-2.1 49.07-0.85 47.65 0.4 45.7 0.4L45.7 0.4ZM49.15-6.4Q50.15-6.4 50.57-7.23 51-8.05 51-9.25L51-9.25 51-19.45Q49.05-18.7 48.12-17.55 47.2-16.4 47.2-14.35L47.2-14.35 47.2-9.65Q47.2-6.4 49.15-6.4L49.15-6.4ZM63.2 7.3L63.2-36.6 72.1-36.6 72.1-34.65Q74-37 77.35-37L77.35-37Q81.6-37 83.27-34.15 84.95-31.3 84.95-26.25L84.95-26.25 84.95-12.7Q84.95-8.4 84.45-5.68 83.95-2.95 82.25-1.28 80.55 0.4 77.1 0.4L77.1 0.4Q73.8 0.4 72.1-1.45L72.1-1.45 72.1 7.3 63.2 7.3ZM74.2-6.4Q75.4-6.4 75.75-7.5 76.1-8.6 76.1-10.7L76.1-10.7 76.1-26.25Q76.1-28.15 75.75-29.15 75.4-30.15 74.15-30.15L74.15-30.15Q72.1-30.15 72.1-26.35L72.1-26.35 72.1-10.3Q72.1-8.45 72.52-7.43 72.95-6.4 74.2-6.4L74.2-6.4ZM96.74 0L88.34 0 88.34-42.95 97.19-42.95 101.14-22.4 101.14-42.95 109.44-42.95 109.44 0 101.04 0 96.74-21.5 96.74 0ZM123.74 0.4Q112.79 0.4 112.79-10.95L112.79-10.95 112.79-25.65Q112.79-30.85 115.72-33.93 118.64-37 123.74-37L123.74-37Q128.84-37 131.77-33.93 134.69-30.85 134.69-25.65L134.69-25.65 134.69-10.95Q134.69 0.4 123.74 0.4L123.74 0.4ZM123.74-6.35Q124.79-6.35 125.29-7.1 125.79-7.85 125.79-9.15L125.79-9.15 125.79-27.05Q125.79-30.25 123.74-30.25L123.74-30.25Q121.69-30.25 121.69-27.05L121.69-27.05 121.69-9.15Q121.69-7.85 122.19-7.1 122.69-6.35 123.74-6.35L123.74-6.35ZM145.49 0.4Q142.04 0.4 140.74-1.05 139.44-2.5 139.44-5.7L139.44-5.7 139.44-28.55 136.99-28.55 136.99-35.2 139.44-35.2 139.44-42.95 147.94-42.95 147.94-35.2 150.44-35.2 150.44-28.55 147.94-28.55 147.94-8Q147.94-7.05 148.09-6.6 148.24-6.15 148.89-6.15L148.89-6.15Q149.39-6.15 149.84-6.2 150.29-6.25 150.44-6.25L150.44-6.25 150.44-0.25Q149.69-0.05 148.26 0.18 146.84 0.4 145.49 0.4L145.49 0.4ZM163.44 0.4Q157.79 0.4 155.34-2.7 152.89-5.8 152.89-11.95L152.89-11.95 152.89-26.65Q152.89-31.7 155.79-34.35 158.69-37 163.89-37L163.89-37Q174.44-37 174.44-26.65L174.44-26.65 174.44-24Q174.44-20 174.34-17.5L174.34-17.5 161.64-17.5 161.64-10.4Q161.64-8.5 162.04-7.43 162.44-6.35 163.74-6.35L163.74-6.35Q164.74-6.35 165.16-6.95 165.59-7.55 165.66-8.33 165.74-9.1 165.74-10.6L165.74-10.6 165.74-14.15 174.44-14.15 174.44-12.05Q174.44-5.65 171.96-2.63 169.49 0.4 163.44 0.4L163.44 0.4ZM161.59-21.85L165.74-21.85 165.74-26.55Q165.74-30.5 163.79-30.5L163.79-30.5Q161.59-30.5 161.59-26.55L161.59-26.55 161.59-21.85ZM187.63 0.4Q176.78 0.4 176.78-10.6L176.78-10.6 176.83-13.5 185.58-13.5 185.63-9.2Q185.63-7.9 186.13-7.23 186.63-6.55 187.78-6.55L187.78-6.55Q189.53-6.55 189.53-9.4L189.53-9.4Q189.53-11.5 188.71-12.7 187.88-13.9 186.08-15.25L186.08-15.25 181.43-18.85Q179.03-20.7 177.98-22.68 176.93-24.65 176.93-28.25L176.93-28.25Q176.93-31.05 178.41-33.02 179.88-35 182.33-36 184.78-37 187.78-37L187.78-37Q198.43-37 198.43-26.4L198.43-26.4 198.43-25.7 189.38-25.7 189.38-27.1Q189.38-28.4 188.96-29.33 188.53-30.25 187.53-30.25L187.53-30.25Q186.63-30.25 186.16-29.73 185.68-29.2 185.68-28.3L185.68-28.3Q185.68-26.3 187.23-25.2L187.23-25.2 192.63-21.25Q195.53-19.1 197.08-16.57 198.63-14.05 198.63-10.2L198.63-10.2Q198.63-5.1 195.73-2.35 192.83 0.4 187.63 0.4L187.63 0.4Z" opacity="1" transform="matrix(1,0,0,1,0,0)" fill="#facc15" class="wordmark-text-0" data-fill-palette-color="primary" id="text-0"></path></svg></g></svg></g></svg></g></svg></g></svg></g><defs></defs></svg><rect width="395.5199999999999" height="101.01590851334178" fill="none" stroke="none" visibility="hidden"></rect></g></svg></g></svg>