<svg xmlns="http://www.w3.org/2000/svg" version="1.1" xmlns:xlink="http://www.w3.org/1999/xlink" xmlns:svgjs="http://svgjs.dev/svgjs" width="128" height="128" viewBox="0 0 128 128"><g transform="matrix(0.6319018404907976,0,0,0.6319018404907976,23.39330767214394,12.33387096774193)"><svg viewBox="0 0 121 155" data-background-color="#ffffff" preserveAspectRatio="xMidYMid meet" height="163" width="128" xmlns="http://www.w3.org/2000/svg" xmlns:xlink="http://www.w3.org/1999/xlink"><g id="tight-bounds" transform="matrix(1,0,0,1,0.24679860302677525,0.25)"><svg viewBox="0 0 120.50640279394644 154.5" height="154.5" width="120.50640279394644"><g><svg viewBox="0 0 120.50640279394644 154.5" height="154.5" width="120.50640279394644"><g><svg viewBox="0 0 120.50640279394644 154.5" height="154.5" width="120.50640279394644"><g id="textblocktransform"><svg viewBox="0 0 120.50640279394644 154.5" height="154.5" width="120.50640279394644" id="textblock"><g><svg viewBox="0 0 120.50640279394644 154.5" height="154.5" width="120.50640279394644"><g transform="matrix(1,0,0,1,0,0)"><svg width="120.50640279394644" viewBox="1.9 -42.95 33.5 42.95" height="154.5" data-palette-color="#facc15"><path d="M9.65 0L1.9 0 1.9-42.95 15-42.95 18.6-16.75 22.2-42.95 35.4-42.95 35.4 0 27.55 0 27.55-30.95 22.6 0 14.9 0 9.65-30.95 9.65 0Z" opacity="1" transform="matrix(1,0,0,1,0,0)" fill="#facc15" class="wordmark-text-0" data-fill-palette-color="primary" id="text-0"></path></svg></g></svg></g></svg></g></svg></g></svg></g><defs></defs></svg><rect width="120.50640279394644" height="154.5" fill="none" stroke="none" visibility="hidden"></rect></g></svg></g></svg>